<?xml version="1.0" encoding="utf-8"?>
<!-- Generator: Adobe Illustrator 19.0.0, SVG Export Plug-In . SVG Version: 6.00 Build 0)  -->
<svg version="1.1" id="Layer_1" xmlns="http://www.w3.org/2000/svg" xmlns:xlink="http://www.w3.org/1999/xlink" x="0px" y="0px"
	 viewBox="-99 182.8 411.2 429.2" style="enable-background:new -99 182.8 411.2 429.2;" xml:space="preserve">
<style type="text/css">
	.st0{fill:url(#SVGID_1_);stroke:#636466;stroke-width:10;}
	.st1{fill:url(#SVGID_2_);stroke:#636466;stroke-width:4;}
	.st2{opacity:0.31;fill:#FFFFFF;enable-background:new    ;}
</style>
<radialGradient id="SVGID_1_" cx="106.64" cy="388.0645" r="197.7492" gradientTransform="matrix(0.9355 0.5479 -0.5424 0.9448 225.7466 -40.7566)" gradientUnits="userSpaceOnUse">
	<stop  offset="0" style="stop-color:#FFFFFF"/>
	<stop  offset="0.1699" style="stop-color:#FCFCFC"/>
	<stop  offset="0.3012" style="stop-color:#F2F2F2"/>
	<stop  offset="0.4197" style="stop-color:#E2E2E2"/>
	<stop  offset="0.5306" style="stop-color:#CACACA"/>
	<stop  offset="0.6362" style="stop-color:#ACACAC"/>
	<stop  offset="0.7379" style="stop-color:#878787"/>
	<stop  offset="0.8364" style="stop-color:#5C5C5C"/>
	<stop  offset="0.9299" style="stop-color:#2A2A2A"/>
	<stop  offset="1" style="stop-color:#000000"/>
</radialGradient>
<polygon class="st0" points="197.9,585.5 32.7,585.8 -84.2,468 -84.5,301.2 32.1,183.1 197.3,182.8 314.2,300.6 314.5,467.4 "/>
<linearGradient id="SVGID_2_" gradientUnits="userSpaceOnUse" x1="730.8179" y1="1215.9631" x2="730.8179" y2="1601.5477" gradientTransform="matrix(0.9954 9.590000e-002 -9.590000e-002 0.9954 -503.7738 -1048.7928)">
	<stop  offset="0" style="stop-color:#FFFFFF"/>
	<stop  offset="1" style="stop-color:#000000"/>
</linearGradient>
<path class="st1" d="M118.5,281.3c-54-5.2-102.7,29.1-117.5,79.2l-34.2-3.3l44.1,43.6l51.6-34.4L28,363.2
	c12.9-35.5,48.6-59.3,88-55.5c46.7,4.5,80.9,46,76.4,92.7c-4.1,42.3-38.6,74.4-79.8,76.7l3.2,26.3c53.3-3.8,97.6-45.5,102.9-100.5
	C224.7,341.7,179.8,287.2,118.5,281.3z"/>
<g>
	<path class="st2" d="M261.3,322.8L199,188.1L31.2,274.2L-83,332.9l17.7,2.6C0.9,322,110.3,316.5,261.3,322.8z"/>
</g>
</svg>
