<?xml version="1.0" encoding="utf-8"?>
<!-- Generator: Adobe Illustrator 19.0.0, SVG Export Plug-In . SVG Version: 6.00 Build 0)  -->
<svg version="1.1" id="Layer_1" xmlns="http://www.w3.org/2000/svg" xmlns:xlink="http://www.w3.org/1999/xlink" x="0px" y="0px"
	 viewBox="-99 182.8 411.2 429.2" style="enable-background:new -99 182.8 411.2 429.2;" xml:space="preserve">
<style type="text/css">
	.st0{fill:url(#SVGID_1_);stroke:#636466;stroke-width:10;}
	.st1{fill:url(#SVGID_2_);stroke:#636466;stroke-width:4;}
	.st2{opacity:0.43;fill:#FFFFFF;enable-background:new    ;}
	.st3{display:none;fill:url(#SVGID_3_);stroke:#636466;stroke-width:10;}
</style>
<radialGradient id="SVGID_1_" cx="104.1173" cy="391.0882" r="197.7492" gradientTransform="matrix(0.8651 0.5016 -0.5016 0.8651 213.1148 7.2926)" gradientUnits="userSpaceOnUse">
	<stop  offset="0" style="stop-color:#FFFFFF"/>
	<stop  offset="0.1699" style="stop-color:#FCFCFC"/>
	<stop  offset="0.3012" style="stop-color:#F2F2F2"/>
	<stop  offset="0.4197" style="stop-color:#E2E2E2"/>
	<stop  offset="0.5306" style="stop-color:#CACACA"/>
	<stop  offset="0.6362" style="stop-color:#ACACAC"/>
	<stop  offset="0.7379" style="stop-color:#878787"/>
	<stop  offset="0.8364" style="stop-color:#5C5C5C"/>
	<stop  offset="0.9299" style="stop-color:#2A2A2A"/>
	<stop  offset="1" style="stop-color:#000000"/>
</radialGradient>
<polygon class="st0" points="183.7,582.1 30.9,582.3 -77.2,474.5 -77.5,321.8 30.4,213.6 183.1,213.4 291.2,321.2 291.5,473.9 "/>
<g>
	
		<linearGradient id="SVGID_2_" gradientUnits="userSpaceOnUse" x1="404.9738" y1="791.4265" x2="404.9738" y2="1271.625" gradientTransform="matrix(1 0 0 1 -291.4463 -588.3398)">
		<stop  offset="0" style="stop-color:#FFFFFF"/>
		<stop  offset="1" style="stop-color:#000000"/>
	</linearGradient>
	<path class="st1" d="M88.4,461.4c-2.9-8-4.4-17.4-4.4-28.2c0-7.5,1.8-15.2,5.4-23c3.6-7.8,12.7-18.8,27.2-32.9
		c12.3-11.9,20.7-21.6,25.2-29c4.6-7.5,6.8-15.1,6.8-23c0-11.4-4.1-20.5-12.3-27.3c-8.2-6.8-18.8-10.2-31.8-10.2
		c-21.2,0-39.4,8.3-54.4,24.8v-31.1c19.2-12,38.8-18,58.8-18c20.1,0,36.5,5.3,49.1,15.8c12.6,10.6,18.8,24.8,18.8,42.6
		c0,8.9-1.9,17.8-5.6,26.7c-3.8,8.9-13.4,20.8-28.8,35.8c-12.9,12.5-21.4,22-25.5,28.4c-4.1,6.4-6.2,13.4-6.2,20.8
		c0,8.3,2.1,17.6,6.4,28L88.4,461.4L88.4,461.4z M84.6,519.3c0-5.7,2-10.5,6-14.4c4-3.9,8.6-5.8,13.8-5.8s9.8,1.9,13.8,5.8
		s6,8.7,6,14.4c0,5-1.9,9.5-5.6,13.6c-3.8,4.1-8.2,6.1-13.3,6.1c-6.2,0-11.2-2-15-6.1C86.5,528.8,84.6,524.2,84.6,519.3z"/>
</g>
<path class="st2" d="M194,294.2l-84.4-95.7L-75.6,387.4l16.6,0.4C8,344,92.5,312.7,194,294.2z"/>
<radialGradient id="SVGID_3_" cx="122" cy="384.842" r="186.6762" gradientUnits="userSpaceOnUse">
	<stop  offset="0" style="stop-color:#FFFFFF"/>
	<stop  offset="0.1699" style="stop-color:#FCFCFC"/>
	<stop  offset="0.3012" style="stop-color:#F2F2F2"/>
	<stop  offset="0.4197" style="stop-color:#E2E2E2"/>
	<stop  offset="0.5306" style="stop-color:#CACACA"/>
	<stop  offset="0.6362" style="stop-color:#ACACAC"/>
	<stop  offset="0.7379" style="stop-color:#878787"/>
	<stop  offset="0.8364" style="stop-color:#5C5C5C"/>
	<stop  offset="0.9299" style="stop-color:#2A2A2A"/>
	<stop  offset="1" style="stop-color:#000000"/>
</radialGradient>
<polygon class="st3" points="270,500.8 144.6,571.5 6,532.8 -64.7,407.5 -26,268.8 99.4,198.2 238,236.8 308.7,362.2 "/>
</svg>
